# xmcd
#
# Track frame offsets:
# 150
# 15170
# 28315
# 45739
# 56198
# 75902
# 88296
# 107534
# 125790
# 140629
# 155988
# 172851
# 188198
# 203108
# 221341
# 235315
# 250738
# 269004
# 291179
# 315820
#
# Disc length: 4426 seconds
#
#
# Revision: 0
# Processed by: cddbd v1.5.2PL0 Copyright (c) Steve Scherf et al.
# Submitted via: FreeRIP 2.945 
#
DISCID=1e114814
DTITLE=As 20 mais de Chitãozinho and Xororó - As 20 mais de Chitãozinho and Xororó
DYEAR=1900
DGENRE=Country
TTITLE0=Palavras
TTITLE1=Fio de Cabelo
TTITLE2=Meu Disfarce
TTITLE3=60 dias apaixonado
TTITLE4=Falando às paredes
TTITLE5=Rebola (Ao vivo)
TTITLE6=Frio da solidão
TTITLE7=Por esse amor
TTITLE8=Brigas
TTITLE9=Se Deus me ouvisse
TTITLE10=Fogão de lenha
TTITLE11=Alô
TTITLE12=Festa de peão
TTITLE13=Majestade o sabiá
TTITLE14=Matriz ou filial
TTITLE15=Galopeira
TTITLE16=Brincar de ser feliz
TTITLE17=Evidência
TTITLE18=Corpo e alma
TTITLE19=Página de amigos
EXTD=
EXTT0=
EXTT1=
EXTT2=
EXTT3=
EXTT4=
EXTT5=
EXTT6=
EXTT7=
EXTT8=
EXTT9=
EXTT10=
EXTT11=
EXTT12=
EXTT13=
EXTT14=
EXTT15=
EXTT16=
EXTT17=
EXTT18=
EXTT19=
PLAYORDER=
